# xmcd
#
# Track frame offsets:
#	150
#	13459
#	28781
#	49991
#	73031
#	93154
#	110304
#	126425
#	141560
#	157447
#	174131
#	189883
#	205305
#	224842
#	240106
#	255202
#	274730
#	295468
#
# Disc length: 4202 seconds
#
# Revision: 0
# Processed by: cddbd v1.5.2PL0 Copyright (c) Steve Scherf et al.
# Submitted via: EZCDAudioConverter 3.1.2.1
#
DISCID=16106812
DTITLE=DJ Promotion CD Pool Polska 225
DYEAR=2018
DGENRE=
TTITLE0=Playboys - Ładne oczy masz (Takie ładne oczy) (Radio Edit)
TTITLE1=D-Bomb - Prawie o północy (Dance 2 Disco Remix Edit)
TTITLE2=Bayera - Obrączki szczerozłote (Extended Mix)
TTITLE3=Extazy - Kochana moja (Extended DJ Club Edit)
TTITLE4=Mejk - Ostatni raz zatańczysz ze mną (Extended Mix )
TTITLE5=Dejw - No chętnie (Extended Mix)
TTITLE6=Adam Chrola - Moja słodka weroniko (Radio Edit)
TTITLE7=M-Power - Pocałuj mnie (Extended Mix)
TTITLE8=Fajters energy folk - Weselnicy (Radio Edit)
TTITLE9=Getleman's - Jak się bawić (Extended Mix)
TTITLE10=Fresh Face - DJ, DJ dawaj (Radio Edit)
TTITLE11=Lesioki - Loca Loca (Radio Edit)
TTITLE12=Mario - Twoje oczy piękne (Extended Mix)
TTITLE13=Mega Dance - Miłość to ogień (Radio Edit)
TTITLE14=Błażej drab - Umówieni na miłość (Radio Edit)
TTITLE15=After party - Bo w końcu musi być dobrze (Toca Bass Extended Remix)
TTITLE16=Camasutra - Jesteśmy na tak (Toca Bass Extended Remix)
TTITLE17=Non Stop - Uderzam w tan (Toca Bass Extended Remix)
EXTD=
EXTT0=
EXTT1=
EXTT2=
EXTT3=
EXTT4=
EXTT5=
EXTT6=
EXTT7=
EXTT8=
EXTT9=
EXTT10=
EXTT11=
EXTT12=
EXTT13=
EXTT14=
EXTT15=
EXTT16=
EXTT17=
PLAYORDER=
